HIERARCHY
ROOT mixamorig:Hips
{
	OFFSET 0.000000 201.639420 0.000000
	CHANNELS 6 Xposition Yposition Zposition Xrotation Yrotation Zrotation
	JOINT mixamorig:Spine
	{
		OFFSET 0.006200 19.524994 -2.481800
		CHANNELS 3 Xrotation Yrotation Zrotation
		JOINT mixamorig:Spine1
		{
			OFFSET -0.000900 22.835007 -2.825400
			CHANNELS 3 Xrotation Yrotation Zrotation
			JOINT mixamorig:Spine2
			{
				OFFSET -0.020600 26.552490 -3.193300
				CHANNELS 3 Xrotation Yrotation Zrotation
				JOINT mixamorig:Neck
				{
					OFFSET -0.060000 30.701813 1.352200
					CHANNELS 3 Xrotation Yrotation Zrotation
					JOINT mixamorig:Head
					{
						OFFSET -0.087200 22.547607 3.670900
						CHANNELS 3 Xrotation Yrotation Zrotation
						JOINT mixamorig:HeadTop_End
						{
							OFFSET -0.830600 40.355194 7.893500
							CHANNELS 3 Xrotation Yrotation Zrotation
							End Site
							{
								OFFSET 0.000000 30.592346 0.000000
							}
						}
						JOINT mixamorig:RightEye
						{
							OFFSET -6.302100 18.118591 16.197100
							CHANNELS 3 Xrotation Yrotation Zrotation
							End Site
							{
								OFFSET 0.000000 30.592346 0.000000
							}
						}
						JOINT mixamorig:LeftEye
						{
							OFFSET 6.741500 18.382690 16.401899
							CHANNELS 3 Xrotation Yrotation Zrotation
							End Site
							{
								OFFSET 0.000000 30.592346 0.000000
							}
						}
					}
				}
				JOINT mixamorig:LeftShoulder
				{
					OFFSET 11.924900 18.230499 1.425400
					CHANNELS 3 Xrotation Yrotation Zrotation
					JOINT mixamorig:LeftArm
					{
						OFFSET 25.435989 -0.697632 -5.229300
						CHANNELS 3 Xrotation Yrotation Zrotation
						JOINT mixamorig:LeftForeArm
						{
							OFFSET 54.684776 0.000000 0.000000
							CHANNELS 3 Xrotation Yrotation Zrotation
							JOINT mixamorig:LeftHand
							{
								OFFSET 55.098175 0.000000 0.000000
								CHANNELS 3 Xrotation Yrotation Zrotation
								JOINT mixamorig:LeftHandMiddle1
								{
									OFFSET 23.369751 0.000000 0.000000
									CHANNELS 3 Xrotation Yrotation Zrotation
									JOINT mixamorig:LeftHandMiddle2
									{
										OFFSET 6.378677 0.000000 0.000000
										CHANNELS 3 Xrotation Yrotation Zrotation
										JOINT mixamorig:LeftHandMiddle3
										{
											OFFSET 6.148331 0.000000 0.000000
											CHANNELS 3 Xrotation Yrotation Zrotation
											JOINT mixamorig:LeftHandMiddle4
											{
												OFFSET 6.582504 0.000000 0.000000
												CHANNELS 3 Xrotation Yrotation Zrotation
												End Site
												{
													OFFSET -1.168900 6.395691 1.028606
												}
											}
										}
									}
								}
								JOINT mixamorig:LeftHandThumb1
								{
									OFFSET 7.235672 -3.848206 5.434273
									CHANNELS 3 Xrotation Yrotation Zrotation
									JOINT mixamorig:LeftHandThumb2
									{
										OFFSET 6.568451 -3.792297 3.792300
										CHANNELS 3 Xrotation Yrotation Zrotation
										JOINT mixamorig:LeftHandThumb3
										{
											OFFSET 6.063080 -3.500519 3.500518
											CHANNELS 3 Xrotation Yrotation Zrotation
											JOINT mixamorig:LeftHandThumb4
											{
												OFFSET 4.793182 -2.767334 2.767349
												CHANNELS 3 Xrotation Yrotation Zrotation
												End Site
												{
													OFFSET 0.101639 6.054260 1.275483
												}
											}
										}
									}
								}
								JOINT mixamorig:LeftHandIndex1
								{
									OFFSET 23.101074 -0.309540 4.992809
									CHANNELS 3 Xrotation Yrotation Zrotation
									JOINT mixamorig:LeftHandIndex2
									{
										OFFSET 6.226883 0.000000 0.000000
										CHANNELS 3 Xrotation Yrotation Zrotation
										JOINT mixamorig:LeftHandIndex3
										{
											OFFSET 6.094330 0.000000 0.000000
											CHANNELS 3 Xrotation Yrotation Zrotation
											JOINT mixamorig:LeftHandIndex4
											{
												OFFSET 5.482605 0.000000 0.000000
												CHANNELS 3 Xrotation Yrotation Zrotation
												End Site
												{
													OFFSET -1.427902 5.233032 0.797164
												}
											}
										}
									}
								}
								JOINT mixamorig:LeftHandRing1
								{
									OFFSET 22.299240 0.021149 -3.964172
									CHANNELS 3 Xrotation Yrotation Zrotation
									JOINT mixamorig:LeftHandRing2
									{
										OFFSET 6.321869 0.000000 0.000000
										CHANNELS 3 Xrotation Yrotation Zrotation
										JOINT mixamorig:LeftHandRing3
										{
											OFFSET 5.899796 0.000000 0.000000
											CHANNELS 3 Xrotation Yrotation Zrotation
											JOINT mixamorig:LeftHandRing4
											{
												OFFSET 6.517899 0.000000 0.000000
												CHANNELS 3 Xrotation Yrotation Zrotation
												End Site
												{
													OFFSET -1.637299 6.232208 0.980890
												}
											}
										}
									}
								}
								JOINT mixamorig:LeftHandPinky1
								{
									OFFSET 20.463791 -0.302338 -8.562233
									CHANNELS 3 Xrotation Yrotation Zrotation
									JOINT mixamorig:LeftHandPinky2
									{
										OFFSET 6.908646 0.000000 0.000000
										CHANNELS 3 Xrotation Yrotation Zrotation
										JOINT mixamorig:LeftHandPinky3
										{
											OFFSET 4.622849 0.000000 0.000000
											CHANNELS 3 Xrotation Yrotation Zrotation
											JOINT mixamorig:LeftHandPinky4
											{
												OFFSET 5.216080 0.000000 0.000000
												CHANNELS 3 Xrotation Yrotation Zrotation
												End Site
												{
													OFFSET -0.606308 5.116241 0.814926
												}
											}
										}
									}
								}
							}
						}
					}
				}
				JOINT mixamorig:RightShoulder
				{
					OFFSET -12.001300 18.284088 1.348900
					CHANNELS 3 Xrotation Yrotation Zrotation
					JOINT mixamorig:RightArm
					{
						OFFSET -25.308500 -0.751312 -5.164599
						CHANNELS 3 Xrotation Yrotation Zrotation
						JOINT mixamorig:RightForeArm
						{
							OFFSET -54.684429 0.000000 0.000000
							CHANNELS 3 Xrotation Yrotation Zrotation
							JOINT mixamorig:RightHand
							{
								OFFSET -55.150291 0.000000 0.000000
								CHANNELS 3 Xrotation Yrotation Zrotation
								JOINT mixamorig:RightHandMiddle1
								{
									OFFSET -23.317566 0.000000 0.000000
									CHANNELS 3 Xrotation Yrotation Zrotation
									JOINT mixamorig:RightHandMiddle2
									{
										OFFSET -6.378403 0.000000 0.000000
										CHANNELS 3 Xrotation Yrotation Zrotation
										JOINT mixamorig:RightHandMiddle3
										{
											OFFSET -6.148193 0.000000 0.000000
											CHANNELS 3 Xrotation Yrotation Zrotation
											JOINT mixamorig:RightHandMiddle4
											{
												OFFSET -6.583389 0.000000 0.000000
												CHANNELS 3 Xrotation Yrotation Zrotation
												End Site
												{
													OFFSET 1.171692 6.395905 1.029786
												}
											}
										}
									}
								}
								JOINT mixamorig:RightHandThumb1
								{
									OFFSET -7.190521 -3.860474 5.435846
									CHANNELS 3 Xrotation Yrotation Zrotation
									JOINT mixamorig:RightHandThumb2
									{
										OFFSET -6.567429 -3.791718 3.791708
										CHANNELS 3 Xrotation Yrotation Zrotation
										JOINT mixamorig:RightHandThumb3
										{
											OFFSET -6.062469 -3.500153 3.500166
											CHANNELS 3 Xrotation Yrotation Zrotation
											JOINT mixamorig:RightHandThumb4
											{
												OFFSET -4.792618 -2.767029 2.767022
												CHANNELS 3 Xrotation Yrotation Zrotation
												End Site
												{
													OFFSET -0.100327 6.053253 1.276754
												}
											}
										}
									}
								}
								JOINT mixamorig:RightHandIndex1
								{
									OFFSET -23.048981 -0.310791 4.992554
									CHANNELS 3 Xrotation Yrotation Zrotation
									JOINT mixamorig:RightHandIndex2
									{
										OFFSET -6.227539 0.000000 0.000000
										CHANNELS 3 Xrotation Yrotation Zrotation
										JOINT mixamorig:RightHandIndex3
										{
											OFFSET -6.095047 0.000000 0.000000
											CHANNELS 3 Xrotation Yrotation Zrotation
											JOINT mixamorig:RightHandIndex4
											{
												OFFSET -5.484772 0.000000 0.000000
												CHANNELS 3 Xrotation Yrotation Zrotation
												End Site
												{
													OFFSET 1.420593 5.237305 0.797056
												}
											}
										}
									}
								}
								JOINT mixamorig:RightHandRing1
								{
									OFFSET -22.246323 0.020569 -3.963762
									CHANNELS 3 Xrotation Yrotation Zrotation
									JOINT mixamorig:RightHandRing2
									{
										OFFSET -6.322128 0.000000 0.000000
										CHANNELS 3 Xrotation Yrotation Zrotation
										JOINT mixamorig:RightHandRing3
										{
											OFFSET -5.900024 0.000000 0.000000
											CHANNELS 3 Xrotation Yrotation Zrotation
											JOINT mixamorig:RightHandRing4
											{
												OFFSET -6.518356 0.000000 0.000000
												CHANNELS 3 Xrotation Yrotation Zrotation
												End Site
												{
													OFFSET 1.636398 6.232697 0.982186
												}
											}
										}
									}
								}
								JOINT mixamorig:RightHandPinky1
								{
									OFFSET -20.411011 -0.303314 -8.561701
									CHANNELS 3 Xrotation Yrotation Zrotation
									JOINT mixamorig:RightHandPinky2
									{
										OFFSET -6.907349 0.000000 0.000000
										CHANNELS 3 Xrotation Yrotation Zrotation
										JOINT mixamorig:RightHandPinky3
										{
											OFFSET -4.623840 0.000000 0.000000
											CHANNELS 3 Xrotation Yrotation Zrotation
											JOINT mixamorig:RightHandPinky4
											{
												OFFSET -5.218353 0.000000 0.000000
												CHANNELS 3 Xrotation Yrotation Zrotation
												End Site
												{
													OFFSET 0.602097 5.118835 0.816273
												}
											}
										}
									}
								}
							}
						}
					}
				}
			}
		}
	}
	JOINT mixamorig:LeftUpLeg
	{
		OFFSET 18.168400 -13.561905 -0.039000
		CHANNELS 3 Xrotation Yrotation Zrotation
		JOINT mixamorig:LeftLeg
		{
			OFFSET 0.577358 -80.825211 -3.695000
			CHANNELS 3 Xrotation Yrotation Zrotation
			JOINT mixamorig:LeftFoot
			{
				OFFSET -0.577356 -83.370262 -6.520700
				CHANNELS 3 Xrotation Yrotation Zrotation
				JOINT mixamorig:LeftToeBase
				{
					OFFSET 0.750401 -20.798306 25.135401
					CHANNELS 3 Xrotation Yrotation Zrotation
					JOINT mixamorig:LeftToe_End
					{
						OFFSET -0.000500 0.001200 19.917799
						CHANNELS 3 Xrotation Yrotation Zrotation
						End Site
						{
							OFFSET 0.000000 19.917805 0.000000
						}
					}
				}
			}
		}
	}
	JOINT mixamorig:RightUpLeg
	{
		OFFSET -18.162500 -13.585098 -0.041000
		CHANNELS 3 Xrotation Yrotation Zrotation
		JOINT mixamorig:RightLeg
		{
			OFFSET -0.595024 -80.945297 -3.631900
			CHANNELS 3 Xrotation Yrotation Zrotation
			JOINT mixamorig:RightFoot
			{
				OFFSET 0.595024 -83.218193 -6.561200
				CHANNELS 3 Xrotation Yrotation Zrotation
				JOINT mixamorig:RightToeBase
				{
					OFFSET -0.753601 -20.807106 25.115000
					CHANNELS 3 Xrotation Yrotation Zrotation
					JOINT mixamorig:RightToe_End
					{
						OFFSET 0.000299 0.001700 19.918200
						CHANNELS 3 Xrotation Yrotation Zrotation
						End Site
						{
							OFFSET 0.000000 19.918203 0.000000
						}
					}
				}
			}
		}
	}
}
MOTION
Frames: 5
Frame Time: 0.033333
2.758667 169.111084 -10.957596 10.323433 1.898323 -0.457864 36.117931 -1.004215 11.001252 1.358217 -0.127241 -2.868352 1.336730 -0.350716 -2.853394 1.544831 -0.806935 -1.610810 19.010587 -7.060743 8.816885 -0.000000 0.000001 -0.000001 -0.000000 0.000001 -0.000001 -0.000000 0.000001 -0.000001 3.508662 -12.999102 -4.879345 -15.509755 7.707472 -34.763084 0.000004 -112.469433 -0.000002 58.996927 -8.547322 59.320924 0.323989 4.978629 -3.623757 2.708274 5.476359 -52.602101 3.942542 6.224868 -64.665840 -0.000002 0.000001 -0.000002 13.735948 7.621081 -16.002291 3.080222 17.459391 0.296949 -4.073567 -4.582274 3.403751 -0.000001 -0.000001 0.000001 -0.115954 4.510947 1.728105 2.428375 5.251551 -49.608675 1.924278 4.778805 -43.847048 -0.000000 -0.000001 0.000004 0.910751 5.524015 -10.307845 3.300626 5.880086 -58.583455 6.779470 6.880437 -89.150928 0.000000 0.000000 0.000002 2.603943 9.869226 -15.887353 3.964445 2.147425 -64.942805 9.126426 6.506277 -109.085866 -0.000001 -0.000001 -0.000001 1.270848 5.357753 11.360022 -15.408550 5.076153 46.545383 0.000047 114.162234 -0.000040 58.476637 11.689668 -53.070341 2.317929 -6.294963 26.249097 2.291551 -5.162566 47.847729 1.202473 -3.967884 34.516474 -0.000001 -0.000002 0.000000 20.058051 -19.861852 11.695276 5.955933 -8.182030 -0.720699 -3.309545 3.659867 -2.688182 0.000003 -0.000001 -0.000000 2.318231 -6.364883 25.759413 2.220754 -5.097812 47.055844 0.428005 -2.406115 20.169424 -0.000000 -0.000002 -0.000002 2.446929 -6.310376 28.017038 2.400162 -5.258460 49.043651 2.503751 -5.399603 50.443611 0.000001 0.000001 0.000001 2.666965 -6.400621 30.524214 2.488300 -5.333341 49.998634 3.796804 -6.195576 62.970833 0.000000 0.000001 -0.000000 -57.615671 12.162731 10.338979 70.650568 -3.130321 0.576877 -24.621872 0.609185 2.642312 -0.075317 -0.000007 0.000003 0.000000 0.000002 0.000000 -56.954530 -10.837490 -9.943789 70.280707 0.660013 -5.927812 -24.738281 -0.014435 4.296195 -0.770968 -0.000004 -0.000000 -0.000000 -0.000001 0.000000 
2.568327 170.663803 -10.186466 10.236971 1.938060 -0.479118 35.392596 -0.915333 10.959986 1.339193 -0.120897 -2.792783 1.318685 -0.334588 -2.778627 1.439477 -0.791882 -1.718298 18.914862 -7.138140 8.873105 0.000001 0.000001 -0.000000 0.000001 0.000001 -0.000000 0.000001 0.000001 -0.000000 3.570941 -13.292850 -4.727467 -16.089009 6.322540 -33.566767 -0.000004 -110.690264 0.000002 58.380448 -7.963192 59.558205 0.357869 5.009023 -4.026700 2.716930 5.482950 -52.692707 4.004004 6.253435 -65.231394 -0.000000 0.000001 -0.000000 13.163415 7.629594 -15.005767 3.080218 17.459364 0.296955 -4.096075 -4.622606 3.408243 0.000001 0.000001 -0.000002 -0.092333 4.530403 1.432002 2.451048 5.270677 -49.855777 2.035330 4.891349 -45.164523 0.000001 0.000001 -0.000003 0.960515 5.565566 -10.853071 3.289573 5.873369 -58.475517 6.738814 6.879721 -88.811625 -0.000002 -0.000002 0.000001 2.717288 9.904219 -16.574279 3.930896 2.131652 -64.634435 9.004173 6.547061 -108.010351 -0.000001 -0.000001 -0.000000 1.295063 5.506393 11.358194 -16.330946 5.965171 45.956962 -0.000015 112.721146 0.000039 58.882856 11.730147 -52.074325 2.341029 -6.308303 26.485448 2.284877 -5.156547 47.773464 1.188775 -3.954614 34.363238 0.000002 -0.000000 -0.000003 20.381884 -20.607512 10.784426 4.865248 -7.077751 -0.196504 -3.454193 3.936779 -2.696423 0.000000 0.000000 -0.000003 2.324019 -6.365569 25.835875 2.212980 -5.090604 46.968503 0.423514 -2.393895 20.062434 0.000001 0.000001 0.000004 2.492173 -6.338666 28.457445 2.393891 -5.253021 48.975243 2.481661 -5.386482 50.235259 0.000001 -0.000000 -0.000001 2.733135 -6.440473 31.150413 2.478686 -5.325286 49.895085 3.770127 -6.181982 62.723574 -0.000002 0.000000 0.000000 -56.333290 12.679760 10.178205 68.951545 -3.084402 1.110458 -24.153419 0.474543 2.274457 -0.073370 -0.000003 -0.000000 0.000000 -0.000002 -0.000000 -55.601117 -11.315123 -9.837042 68.535081 0.679160 -6.009984 -24.316505 0.245961 4.318195 -0.674874 0.000002 0.000001 -0.000000 -0.000000 -0.000000 
2.368461 172.455734 -9.375340 10.223410 1.917009 -0.533213 34.538699 -0.839645 10.928965 1.360942 -0.109482 -2.793327 1.341571 -0.319231 -2.780188 1.312940 -0.801584 -1.683238 18.647692 -7.116720 8.706087 -0.000002 -0.000000 0.000001 -0.000002 -0.000000 0.000001 -0.000002 -0.000000 0.000001 3.628845 -13.542336 -4.415375 -16.853260 4.609828 -32.172978 0.000080 -108.601449 0.000067 57.342553 -7.114299 59.412838 0.388008 5.027451 -4.393293 2.721048 5.486063 -52.735805 4.076702 6.286269 -65.897085 -0.000001 0.000001 -0.000001 12.578278 7.633051 -14.081173 3.080229 17.459379 0.296951 -4.080708 -4.595390 3.405433 0.000000 -0.000000 -0.000002 -0.072170 4.539120 1.180744 2.475057 5.290743 -50.116790 2.171715 5.022798 -46.742792 0.000000 0.000001 0.000001 1.005594 5.593060 -11.371242 3.266120 5.858986 -58.245872 6.687184 6.878447 -88.380476 -0.000002 -0.000000 0.000002 2.822971 9.922993 -17.240885 3.877278 2.105946 -64.139977 8.853254 6.593879 -106.691557 -0.000001 0.000002 0.000000 1.300706 5.546572 11.357539 -17.597830 7.203333 45.356435 -0.000013 110.796535 0.000021 59.095377 11.636286 -51.351780 2.349278 -6.302825 26.645060 2.287079 -5.158535 47.798012 1.185728 -3.960061 34.385631 -0.000001 0.000001 -0.000000 20.002405 -20.888834 10.035697 4.674654 -6.768550 -0.060489 -3.413837 3.856440 -2.694700 0.000002 0.000001 -0.000006 2.307129 -6.342955 25.754716 2.220519 -5.097611 47.053402 0.430127 -2.411899 20.219954 0.000002 -0.000002 -0.000006 2.530798 -6.352511 28.914417 2.390118 -5.249752 48.934013 2.464413 -5.379087 50.087615 -0.000001 0.000001 0.000000 2.798939 -6.468467 31.870404 2.465797 -5.314444 49.756074 3.740321 -6.166605 62.446330 -0.000002 0.000001 0.000001 -54.935297 13.130798 10.068085 66.920985 -3.086885 1.513132 -23.542059 0.359979 1.927418 -0.072155 -0.000009 0.000001 -0.000000 0.000002 0.000000 -54.096379 -11.684040 -9.651244 66.428057 0.649577 -5.901670 -23.725311 0.585958 4.320090 -0.645880 -0.000008 0.000002 0.000000 -0.000001 -0.000000 
2.144972 174.385345 -8.561413 10.276049 1.879071 -0.596849 33.623181 -0.824874 10.909879 1.412173 -0.100723 -2.866544 1.393394 -0.311649 -2.854226 1.200828 -0.826124 -1.501958 18.202198 -6.941409 8.226599 0.000001 -0.000000 -0.000000 0.000001 -0.000000 -0.000000 0.000001 -0.000000 -0.000000 3.683511 -13.762512 -3.979874 -17.809443 2.722453 -30.635451 0.000004 -106.318178 -0.000031 55.766623 -6.130705 58.744592 0.382670 4.980936 -4.376161 2.712851 5.479834 -52.650120 4.162680 6.323818 -66.680022 -0.000000 -0.000001 0.000001 12.013933 7.486376 -13.012185 3.080233 17.459350 0.296967 -3.982533 -4.419697 3.385805 -0.000001 0.000000 0.000002 -0.095620 4.467912 1.485229 2.500642 5.311929 -50.393576 2.337093 5.172819 -48.603879 0.000002 0.000000 -0.000002 1.026120 5.569688 -11.709026 3.213241 5.826081 -57.726655 6.625569 6.876448 -87.866060 -0.000001 -0.000002 0.000001 2.913144 9.899146 -17.898637 3.775824 2.055801 -63.198989 8.675600 6.644234 -105.150270 -0.000003 0.000002 -0.000002 1.307433 5.572639 11.356891 -19.260913 8.752980 44.757936 0.000047 108.441944 -0.000071 59.157170 11.306252 -50.924098 2.339944 -6.277753 26.695634 2.309756 -5.178933 48.049602 1.213540 -4.016574 34.895382 0.000000 -0.000000 -0.000002 19.265665 -20.859685 9.498905 4.876898 -6.865248 -0.128452 -3.284066 3.611206 -2.678698 0.000000 0.000000 -0.000003 2.258113 -6.290636 25.421168 2.259875 -5.133805 47.494779 0.463834 -2.501433 21.006308 -0.000000 -0.000001 -0.000003 2.568143 -6.357302 29.428676 2.395650 -5.254532 48.994412 2.474039 -5.398094 50.247472 -0.000001 0.000001 0.000001 2.877064 -6.494412 32.787008 2.452100 -5.302867 49.608050 3.728952 -6.160681 62.340496 0.000000 0.000000 -0.000001 -53.458381 13.411019 10.005778 64.639018 -3.245806 1.630474 -22.799262 0.348990 1.699438 -0.070913 -0.000009 0.000002 0.000000 0.000000 -0.000000 -52.533994 -12.055407 -9.432348 64.076293 0.657489 -5.731095 -23.001183 0.927061 4.278083 -0.669853 -0.000003 -0.000002 -0.000000 0.000000 -0.000000 
1.910947 176.363541 -7.753578 10.403052 1.882803 -0.657102 32.725311 -0.860351 10.904192 1.451222 -0.095418 -2.985292 1.432324 -0.309978 -2.973503 1.130820 -0.867112 -1.207260 17.645396 -6.665617 7.515886 0.000001 0.000000 -0.000000 0.000001 0.000000 -0.000000 0.000001 0.000000 -0.000000 3.744240 -14.009124 -3.482662 -18.878054 0.744055 -28.997572 -0.000060 -103.920311 -0.000068 53.722091 -5.178267 57.667704 0.324274 4.836381 -3.764217 2.689606 5.462105 -52.406156 4.245233 6.358530 -67.427341 -0.000001 0.000001 0.000001 11.550786 7.019665 -11.575863 3.080224 17.459369 0.296948 -3.796526 -4.087063 3.347778 0.000001 -0.000001 -0.000002 -0.183820 4.270796 2.661078 2.526736 5.333304 -50.674929 2.507663 5.317711 -50.469422 -0.000002 0.000000 -0.000004 1.011074 5.475574 -11.781243 3.127062 5.771066 -56.873479 6.553059 6.873399 -87.260243 -0.000000 0.000001 -0.000001 2.985891 9.821823 -18.571100 3.620223 1.974722 -61.740320 8.484565 6.692683 -103.505377 -0.000002 0.000001 0.000003 1.308660 5.553514 11.357362 -21.178366 10.567974 44.158556 -0.000035 105.766169 0.000044 59.164185 10.783861 -50.669547 2.310019 -6.233625 26.586689 2.351103 -5.215613 48.506139 1.270978 -4.118966 35.848832 0.000000 -0.000000 -0.000000 18.528290 -20.744929 9.063822 5.053356 -7.016344 -0.210980 -3.204674 3.462691 -2.666746 -0.000001 -0.000001 0.000002 2.168494 -6.202615 24.736058 2.331761 -5.198513 48.293016 0.530962 -2.669470 22.494115 -0.000000 -0.000001 0.000000 2.608610 -6.360342 30.007808 2.406371 -5.263788 49.111355 2.493370 -5.428404 50.526994 -0.000000 0.000000 0.000001 2.979241 -6.530331 33.957805 2.431022 -5.284953 49.379546 3.702816 -6.147008 62.096719 -0.000001 -0.000000 -0.000001 -51.952601 13.497932 9.868044 62.192042 -3.570316 1.562165 -21.954060 0.555168 1.576361 -0.069999 0.000005 -0.000001 0.000000 0.000002 0.000000 -50.999793 -12.537508 -9.220317 61.591525 0.859467 -5.622135 -22.187134 1.110188 4.164142 -0.687352 -0.000003 0.000002 -0.000000 -0.000000 0.000000 
